<svg xmlns="http://www.w3.org/2000/svg" xmlns:xlink="http://www.w3.org/1999/xlink" width="2000" zoomAndPan="magnify" viewBox="0 0 1500 1499.999933" height="2000" preserveAspectRatio="xMidYMid meet" version="1.0"><defs><clipPath id="1ab209d08f"><path d="M 399.851562 312.203125 L 1100.140625 312.203125 L 1100.140625 1012.492188 L 399.851562 1012.492188 Z M 399.851562 312.203125 " clip-rule="nonzero"/></clipPath><clipPath id="f816d489ac"><path d="M 749.996094 312.203125 C 556.617188 312.203125 399.851562 468.96875 399.851562 662.347656 C 399.851562 855.726562 556.617188 1012.492188 749.996094 1012.492188 C 943.375 1012.492188 1100.140625 855.726562 1100.140625 662.347656 C 1100.140625 468.96875 943.375 312.203125 749.996094 312.203125 Z M 749.996094 312.203125 " clip-rule="nonzero"/></clipPath><clipPath id="379559f1a3"><path d="M 438.035156 350.382812 L 1061.964844 350.382812 L 1061.964844 974.3125 L 438.035156 974.3125 Z M 438.035156 350.382812 " clip-rule="nonzero"/></clipPath><clipPath id="646883418f"><path d="M 750 350.382812 C 577.703125 350.382812 438.035156 490.054688 438.035156 662.347656 C 438.035156 834.640625 577.703125 974.3125 750 974.3125 C 922.292969 974.3125 1061.964844 834.640625 1061.964844 662.347656 C 1061.964844 490.054688 922.292969 350.382812 750 350.382812 Z M 750 350.382812 " clip-rule="nonzero"/></clipPath><clipPath id="d95300d26a"><path d="M 249 341.882812 L 1250.902344 341.882812 L 1250.902344 1147.382812 L 249 1147.382812 Z M 249 341.882812 " clip-rule="nonzero"/></clipPath><clipPath id="f2d10089cd"><path d="M 716 569 L 974.523438 569 L 974.523438 742 L 716 742 Z M 716 569 " clip-rule="nonzero"/></clipPath><clipPath id="460c25c0f5"><path d="M 525.273438 548.582031 L 722 548.582031 L 722 775.832031 L 525.273438 775.832031 Z M 525.273438 548.582031 " clip-rule="nonzero"/></clipPath></defs><g clip-path="url(#1ab209d08f)"><g clip-path="url(#f816d489ac)"><path stroke-linecap="butt" transform="matrix(0.75, 0, 0, 0.75, 399.852597, 312.202981)" fill="none" stroke-linejoin="miter" d="M 466.858066 0.000191855 C 209.019486 0.000191855 -0.00137868 209.021057 -0.00137868 466.859637 C -0.00137868 724.698217 209.019486 933.719082 466.858066 933.719082 C 724.696647 933.719082 933.717512 724.698217 933.717512 466.859637 C 933.717512 209.021057 724.696647 0.000191855 466.858066 0.000191855 Z M 466.858066 0.000191855 " stroke="#ffffff" stroke-width="94" stroke-opacity="1" stroke-miterlimit="4"/></g></g><g clip-path="url(#379559f1a3)"><g clip-path="url(#646883418f)"><path stroke-linecap="butt" transform="matrix(0.75, 0, 0, 0.75, 438.033428, 350.383779)" fill="none" stroke-linejoin="miter" d="M 415.955466 -0.00128816 C 186.226279 -0.00128816 0.00230484 186.227895 0.00230484 415.951873 C 0.00230484 645.675851 186.226279 831.905033 415.955466 831.905033 C 645.679444 831.905033 831.908626 645.675851 831.908626 415.951873 C 831.908626 186.227895 645.679444 -0.00128816 415.955466 -0.00128816 Z M 415.955466 -0.00128816 " stroke="#ffffff" stroke-width="20" stroke-opacity="1" stroke-miterlimit="4"/></g></g><g clip-path="url(#d95300d26a)"><path fill="#ffffff" d="M 1017.519531 341.863281 L 1018.484375 345.722656 C 1018.636719 345.726562 1019.113281 345.808594 1019.90625 345.96875 C 1020.226562 346.039062 1020.550781 346.121094 1020.875 346.214844 C 1021.03125 346.25 1021.523438 346.414062 1022.34375 346.714844 L 1023.65625 347.253906 C 1021.230469 344.859375 1019.34375 343.175781 1018.003906 342.199219 L 1017.523438 341.863281 Z M 482.609375 341.925781 L 482.132812 342.261719 C 480.792969 343.238281 478.90625 344.921875 476.476562 347.316406 L 477.792969 346.777344 C 478.613281 346.476562 479.105469 346.308594 479.261719 346.277344 C 479.585938 346.183594 479.910156 346.101562 480.226562 346.027344 C 481.023438 345.871094 481.5 345.789062 481.652344 345.785156 L 482.617188 341.925781 Z M 1023.679688 347.269531 C 1030.773438 354.429688 1039.753906 364.28125 1050.617188 376.824219 C 1054.902344 381.972656 1064.515625 395.695312 1079.460938 418 C 1080.703125 419.75 1083.925781 423.546875 1089.136719 429.390625 C 1103.464844 445.113281 1118.632812 458.546875 1134.644531 469.695312 C 1135.042969 469.835938 1135.382812 469.902344 1135.667969 469.902344 C 1136.390625 469.902344 1136.757812 469.457031 1136.769531 468.5625 C 1136.125 462.214844 1134.429688 455.371094 1131.675781 448.023438 C 1126.859375 434.972656 1120.988281 423.109375 1114.054688 412.433594 C 1108.085938 404.082031 1100.140625 394.328125 1090.222656 383.171875 C 1084.417969 377.277344 1075.902344 370.957031 1064.683594 364.214844 L 1023.691406 347.269531 Z M 476.453125 347.328125 L 435.453125 364.277344 C 424.234375 371.019531 415.71875 377.339844 409.914062 383.234375 C 399.996094 394.390625 392.050781 404.144531 386.082031 412.496094 C 379.148438 423.171875 373.277344 435.035156 368.460938 448.085938 C 365.707031 455.433594 364.011719 462.277344 363.367188 468.625 C 363.378906 469.519531 363.746094 469.964844 364.46875 469.964844 C 364.753906 469.964844 365.09375 469.894531 365.488281 469.757812 C 381.503906 458.609375 396.671875 445.175781 411 429.449219 C 416.207031 423.605469 419.433594 419.808594 420.671875 418.0625 C 435.621094 395.757812 445.234375 382.03125 449.519531 376.886719 C 460.386719 364.339844 469.367188 354.488281 476.460938 347.328125 Z M 1113.125 392.835938 L 1112.925781 394.371094 C 1117.640625 399.027344 1120.390625 402.09375 1121.175781 403.566406 C 1122.910156 405.949219 1124.578125 408.558594 1126.179688 411.390625 C 1129.386719 417.054688 1132.324219 423.625 1135 431.09375 L 1148.5625 479.710938 C 1153.664062 494.199219 1157.414062 505.363281 1159.808594 513.203125 C 1163.921875 530.675781 1165.347656 539.882812 1164.085938 540.828125 C 1163.667969 541.183594 1163.328125 541.359375 1163.066406 541.359375 C 1162.8125 541.359375 1162.632812 541.195312 1162.523438 540.867188 C 1155.558594 523.824219 1147.914062 510.351562 1139.597656 500.445312 C 1125.53125 486.359375 1117.75 478.777344 1116.25 477.691406 C 1093.699219 461.15625 1082.417969 452.640625 1082.40625 452.140625 C 1076.371094 446.058594 1069.558594 436.792969 1061.964844 424.34375 C 1061.738281 424.167969 1061.558594 424.082031 1061.433594 424.082031 C 1061.234375 424.082031 1061.15625 424.289062 1061.191406 424.699219 L 1063.132812 434.660156 C 1064.894531 442.347656 1066.449219 448.007812 1067.796875 451.640625 C 1073.71875 467.304688 1081.394531 480.363281 1090.820312 490.8125 C 1095.34375 495.84375 1098.429688 498.996094 1100.078125 500.277344 C 1117.203125 512.570312 1134.527344 526.9375 1152.046875 543.375 C 1157.898438 548.753906 1165.933594 559.054688 1176.148438 574.28125 C 1176.304688 574.394531 1176.453125 574.453125 1176.597656 574.453125 C 1177.125 574.453125 1177.582031 573.671875 1177.964844 572.109375 L 1177.59375 537.574219 C 1178.789062 510.082031 1179.269531 495.5 1179.03125 493.820312 C 1177.910156 477.597656 1175.769531 465.09375 1172.613281 456.3125 C 1166.027344 438.398438 1159.394531 425.972656 1152.714844 419.027344 C 1148.160156 413.355469 1136.78125 405.574219 1118.578125 395.675781 Z M 387.011719 392.898438 L 381.558594 395.738281 C 363.355469 405.632812 351.976562 413.417969 347.421875 419.089844 C 340.742188 426.035156 334.109375 438.460938 327.523438 456.371094 C 324.363281 465.15625 322.226562 477.660156 321.105469 493.882812 C 320.867188 495.558594 321.347656 510.144531 322.542969 537.632812 L 322.171875 572.167969 C 322.554688 573.734375 323.011719 574.515625 323.539062 574.515625 C 323.683594 574.515625 323.832031 574.457031 323.988281 574.339844 C 334.203125 559.117188 342.238281 548.816406 348.089844 543.4375 C 365.609375 527 382.933594 512.632812 400.058594 500.339844 C 401.707031 499.058594 404.792969 495.90625 409.316406 490.875 C 418.742188 480.425781 426.417969 467.367188 432.335938 451.703125 C 433.6875 448.070312 435.242188 442.410156 437.003906 434.722656 L 438.945312 424.761719 C 438.980469 424.351562 438.902344 424.144531 438.703125 424.144531 C 438.574219 424.144531 438.398438 424.230469 438.171875 424.402344 C 430.578125 436.855469 423.765625 446.121094 417.726562 452.199219 C 417.71875 452.703125 406.4375 461.21875 383.886719 477.75 C 382.386719 478.835938 374.605469 486.421875 360.539062 500.507812 C 352.222656 510.410156 344.578125 523.886719 337.613281 540.929688 C 337.503906 541.257812 337.324219 541.421875 337.070312 541.421875 C 336.808594 541.421875 336.46875 541.246094 336.050781 540.890625 C 334.789062 539.945312 336.214844 530.738281 340.328125 513.265625 C 342.722656 505.425781 346.472656 494.261719 351.574219 479.773438 L 365.136719 431.15625 C 367.8125 423.6875 370.75 417.117188 373.957031 411.453125 C 375.558594 408.617188 377.226562 406.011719 378.960938 403.628906 C 379.742188 402.15625 382.496094 399.089844 387.210938 394.429688 Z M 1185.796875 452.71875 L 1186.277344 459.554688 C 1189.746094 467.652344 1192.394531 475.363281 1194.226562 482.6875 C 1196.054688 490.011719 1197.0625 496.949219 1197.253906 503.503906 C 1197.347656 510.859375 1197.164062 516.476562 1196.699219 520.347656 C 1193.414062 538.914062 1191.675781 550.597656 1191.484375 555.402344 L 1190.332031 628.148438 C 1189.972656 637.4375 1189.425781 642.601562 1188.699219 643.632812 C 1188.375 643.816406 1188.085938 643.90625 1187.824219 643.90625 C 1187.164062 643.90625 1186.699219 643.328125 1186.421875 642.167969 C 1182.34375 622.453125 1179.257812 610.304688 1177.171875 605.71875 C 1173.421875 595.804688 1169.996094 588.597656 1166.898438 584.097656 C 1160.917969 575.058594 1155.855469 568.191406 1151.71875 563.492188 C 1144.6875 555.683594 1134.726562 545.5625 1121.84375 533.128906 L 1119.230469 530.042969 C 1112.59375 522.050781 1108.207031 515.617188 1106.074219 510.738281 C 1105.964844 510.617188 1105.875 510.554688 1105.796875 510.554688 C 1105.671875 510.554688 1105.589844 510.71875 1105.550781 511.042969 L 1105.523438 516.089844 C 1106.175781 527.460938 1112.207031 545.375 1123.617188 569.828125 L 1141.5 604.363281 C 1158.964844 628.359375 1172.453125 648.410156 1181.972656 664.511719 C 1186.410156 672.660156 1189.820312 681.808594 1192.199219 691.953125 C 1192.476562 692.273438 1192.742188 692.433594 1192.988281 692.433594 C 1193.476562 692.433594 1193.898438 691.808594 1194.261719 690.558594 C 1196.429688 676.640625 1198.632812 665.925781 1200.867188 658.421875 C 1212.710938 625.890625 1218.746094 608.527344 1218.976562 606.324219 C 1221.613281 595.230469 1222.992188 582.507812 1223.109375 568.160156 C 1223.757812 549.378906 1221.324219 530.886719 1215.804688 512.6875 C 1214.433594 507.378906 1212.589844 502.261719 1210.273438 497.335938 C 1204.007812 484.722656 1197.734375 473.09375 1191.449219 462.445312 Z M 314.339844 452.777344 L 308.6875 462.507812 C 302.402344 473.15625 296.128906 484.785156 289.863281 497.398438 C 287.546875 502.324219 285.703125 507.441406 284.328125 512.746094 C 278.8125 530.949219 276.375 549.441406 277.027344 568.222656 C 277.144531 582.570312 278.523438 595.289062 281.160156 606.386719 C 281.390625 608.589844 287.425781 625.953125 299.265625 658.480469 C 301.503906 665.988281 303.707031 676.699219 305.875 690.621094 C 306.234375 691.871094 306.660156 692.492188 307.148438 692.492188 C 307.394531 692.492188 307.65625 692.335938 307.9375 692.015625 C 310.316406 681.871094 313.726562 672.722656 318.164062 664.574219 C 327.683594 648.472656 341.171875 628.421875 358.636719 604.421875 L 376.519531 569.890625 C 387.929688 545.433594 393.957031 527.523438 394.613281 516.152344 L 394.585938 511.105469 C 394.546875 510.777344 394.464844 510.617188 394.339844 510.617188 C 394.261719 510.617188 394.171875 510.675781 394.0625 510.796875 C 391.929688 515.679688 387.542969 522.113281 380.902344 530.105469 L 378.292969 533.191406 C 365.410156 545.625 355.449219 555.746094 348.417969 563.550781 C 344.28125 568.253906 339.21875 575.121094 333.238281 584.160156 C 330.140625 588.65625 326.714844 595.863281 322.960938 605.78125 C 320.878906 610.367188 317.792969 622.515625 313.710938 642.230469 C 313.4375 643.390625 312.972656 643.96875 312.3125 643.96875 C 312.050781 643.96875 311.757812 643.875 311.4375 643.695312 C 310.710938 642.660156 310.164062 637.5 309.804688 628.210938 L 308.652344 555.460938 C 308.460938 550.660156 306.71875 538.976562 303.4375 520.410156 C 302.972656 516.539062 302.789062 510.921875 302.882812 503.5625 C 303.074219 497.011719 304.082031 490.074219 305.910156 482.75 C 307.742188 475.425781 310.390625 467.714844 313.859375 459.617188 Z M 1238.792969 585.277344 L 1236.507812 592.863281 C 1236.734375 608.507812 1235.292969 621.910156 1232.179688 633.070312 C 1229.808594 641.085938 1226.589844 650.296875 1222.519531 660.703125 C 1210.613281 683.585938 1204.117188 696.976562 1203.035156 700.878906 C 1203.035156 700.878906 1203.03125 700.878906 1203.03125 700.878906 C 1202.332031 700.878906 1195.085938 726.148438 1181.289062 776.6875 C 1181.90625 773.4375 1182.570312 767.722656 1183.289062 759.546875 C 1183.523438 754.601562 1183.503906 749.324219 1183.226562 743.71875 C 1181.695312 722.757812 1179.28125 707.082031 1175.988281 696.699219 C 1174.363281 691.082031 1171.464844 683.023438 1167.296875 672.53125 L 1161.660156 661.511719 L 1145.554688 631.851562 C 1142.960938 625.773438 1140.480469 617.957031 1138.117188 608.40625 L 1138.101562 608.40625 C 1138.21875 623.621094 1139.015625 637.09375 1140.488281 648.820312 C 1141.847656 658.265625 1142.753906 663.703125 1143.203125 665.125 L 1154.355469 718.265625 C 1159.097656 737.820312 1163.285156 753.738281 1166.917969 766.019531 C 1168.019531 770.636719 1168.808594 774.582031 1169.292969 777.855469 C 1170.214844 784.546875 1170.382812 791.234375 1169.792969 797.910156 C 1169.246094 805.753906 1167.78125 814.140625 1165.398438 823.066406 C 1165.375 823.890625 1165.613281 824.300781 1166.113281 824.300781 C 1166.214844 824.300781 1166.328125 824.285156 1166.449219 824.25 C 1200.320312 789.707031 1222.050781 758.519531 1231.648438 730.691406 L 1234.679688 720.414062 L 1235.878906 717.363281 C 1236.65625 714.960938 1237.378906 711.8125 1238.054688 707.921875 C 1239.179688 703.757812 1240.546875 689.382812 1242.160156 664.804688 C 1243.988281 646.007812 1243.242188 622.398438 1239.917969 593.976562 Z M 261.34375 585.339844 L 260.21875 594.039062 C 256.894531 622.460938 256.148438 646.066406 257.976562 664.863281 C 259.585938 689.445312 260.957031 703.820312 262.082031 707.984375 C 262.757812 711.875 263.480469 715.023438 264.257812 717.425781 L 265.457031 720.476562 L 268.488281 730.753906 C 278.082031 758.582031 299.816406 789.769531 333.6875 824.3125 C 333.808594 824.347656 333.921875 824.363281 334.019531 824.363281 C 334.523438 824.363281 334.761719 823.953125 334.738281 823.125 C 332.351562 814.199219 330.890625 805.816406 330.34375 797.972656 C 329.753906 791.296875 329.917969 784.609375 330.84375 777.914062 C 331.328125 774.644531 332.117188 770.699219 333.21875 766.082031 C 336.851562 753.800781 341.039062 737.882812 345.78125 718.328125 L 356.933594 665.1875 C 357.382812 663.761719 358.289062 658.328125 359.648438 648.882812 C 361.121094 637.144531 361.917969 623.664062 362.035156 608.433594 L 362.027344 608.433594 C 359.660156 618 357.179688 625.828125 354.582031 631.910156 L 338.476562 661.570312 L 332.839844 672.59375 C 328.671875 683.085938 325.773438 691.144531 324.148438 696.761719 C 320.855469 707.144531 318.441406 722.816406 316.910156 743.78125 C 316.632812 749.386719 316.613281 754.664062 316.847656 759.605469 C 317.566406 767.785156 318.230469 773.5 318.84375 776.75 C 305.050781 726.210938 297.800781 700.941406 297.105469 700.941406 C 297.101562 700.941406 297.101562 700.941406 297.101562 700.941406 C 296.019531 697.039062 289.523438 683.648438 277.613281 660.765625 C 273.546875 650.355469 270.328125 641.144531 267.957031 633.132812 C 264.84375 621.972656 263.402344 608.570312 263.628906 592.921875 Z M 1141.882812 717.410156 C 1134.644531 732.226562 1128.929688 749.46875 1124.734375 769.140625 L 1122.265625 781.40625 L 1107.121094 890.152344 C 1103.734375 910.117188 1099.40625 926.011719 1094.140625 937.839844 C 1093.921875 938.710938 1094.292969 939.195312 1095.25 939.292969 L 1108.769531 932.570312 L 1173.265625 893.027344 L 1178.761719 889.203125 C 1191.925781 880.433594 1204.5625 867.738281 1216.664062 851.113281 C 1225.320312 839.453125 1233.191406 821.8125 1240.28125 798.191406 C 1242.035156 792.160156 1243.464844 786.117188 1244.566406 780.054688 C 1246.898438 757.238281 1248.289062 744.339844 1248.738281 741.359375 C 1249.542969 734.933594 1250.191406 730.886719 1250.683594 729.21875 L 1250.667969 729.21875 L 1247.414062 737.503906 C 1246.402344 741.839844 1245.226562 746.035156 1243.886719 750.082031 C 1242.542969 754.128906 1241.039062 758.03125 1239.367188 761.785156 C 1236.019531 769.300781 1232.015625 776.238281 1227.347656 782.597656 C 1220.035156 792.195312 1212.609375 800.738281 1205.070312 808.21875 C 1183.78125 826.21875 1168.0625 840.859375 1157.921875 852.148438 C 1149.34375 860.902344 1139.859375 874.265625 1129.472656 892.238281 C 1139.992188 866.917969 1146.246094 842.964844 1148.238281 820.375 C 1149.132812 812.109375 1149.136719 803.539062 1148.25 794.65625 C 1143.242188 768.144531 1140.726562 753.113281 1140.699219 749.5625 C 1140.203125 741.117188 1140.460938 731.746094 1141.472656 721.457031 L 1141.894531 717.410156 Z M 358.238281 717.453125 L 358.660156 721.515625 C 359.671875 731.808594 359.929688 741.175781 359.4375 749.625 C 359.410156 753.175781 356.894531 768.207031 351.886719 794.71875 C 351 803.601562 351.003906 812.171875 351.898438 820.433594 C 353.890625 843.023438 360.144531 866.980469 370.664062 892.300781 C 360.277344 874.328125 350.792969 860.964844 342.214844 852.210938 C 332.074219 840.921875 316.355469 826.28125 295.0625 808.28125 C 287.527344 800.800781 280.101562 792.257812 272.785156 782.660156 C 268.121094 776.300781 264.113281 769.363281 260.769531 761.847656 C 259.097656 758.089844 257.59375 754.1875 256.25 750.140625 C 254.910156 746.09375 253.734375 741.902344 252.722656 737.566406 L 249.421875 729.167969 L 249.417969 729.167969 C 249.914062 730.761719 250.574219 734.847656 251.398438 741.421875 C 251.847656 744.402344 253.238281 757.300781 255.566406 780.117188 C 256.671875 786.179688 258.101562 792.222656 259.855469 798.253906 C 266.945312 821.875 274.816406 839.515625 283.472656 851.175781 C 295.574219 867.800781 308.210938 880.496094 321.371094 889.265625 L 326.871094 893.089844 L 391.367188 932.632812 L 404.886719 939.355469 C 405.84375 939.257812 406.214844 938.773438 405.996094 937.902344 C 400.730469 926.074219 396.402344 910.179688 393.015625 890.210938 L 377.871094 781.46875 L 375.402344 769.203125 C 371.203125 749.523438 365.484375 732.273438 358.246094 717.453125 Z M 1114.632812 818.074219 C 1109.25 818.699219 1093.648438 838.3125 1067.835938 876.914062 C 1064.84375 882.300781 1060.957031 890.953125 1056.175781 902.875 C 1046.394531 934.585938 1039.300781 954.949219 1034.882812 963.972656 C 1029.4375 974.945312 1024.785156 983.550781 1020.929688 989.78125 C 1013.136719 1002.03125 1007.328125 1010.277344 1003.503906 1014.519531 C 1003.4375 1015.082031 1003.6875 1015.390625 1004.25 1015.453125 L 1025.328125 1009.136719 C 1069.398438 1001.066406 1091.925781 996.664062 1092.910156 995.925781 C 1102.992188 993.054688 1115.054688 987.644531 1129.09375 979.691406 C 1157.0625 963.296875 1180.792969 936.613281 1200.289062 899.636719 C 1205.167969 890.417969 1209.785156 880.566406 1214.140625 870.085938 L 1214.847656 864.152344 L 1214.832031 864.152344 C 1208.4375 876.523438 1194.148438 892.277344 1171.96875 911.410156 C 1165.230469 916.484375 1156.691406 921.890625 1146.347656 927.625 C 1140.75 931.078125 1123.859375 939.425781 1095.671875 952.664062 C 1085.789062 958.75 1070.191406 971.140625 1048.875 989.835938 C 1043.617188 993.894531 1040.550781 995.921875 1039.671875 995.921875 C 1039.578125 995.921875 1039.507812 995.898438 1039.464844 995.847656 C 1038.96875 995.148438 1039.070312 994.386719 1039.773438 993.566406 C 1049.265625 983.152344 1058 971.992188 1065.96875 960.078125 C 1073.148438 949.085938 1078.449219 939.703125 1081.875 931.921875 L 1115.25 820.125 C 1115.382812 818.910156 1115.234375 818.234375 1114.808594 818.097656 Z M 385.5 818.136719 L 385.328125 818.160156 C 384.902344 818.296875 384.753906 818.972656 384.886719 820.1875 L 418.261719 931.984375 C 421.6875 939.765625 426.988281 949.148438 434.167969 960.140625 C 442.136719 972.054688 450.871094 983.214844 460.363281 993.628906 C 461.0625 994.449219 461.167969 995.210938 460.671875 995.910156 C 460.628906 995.957031 460.558594 995.984375 460.464844 995.984375 C 459.585938 995.984375 456.519531 993.953125 451.261719 989.898438 C 429.945312 971.203125 414.347656 958.8125 404.464844 952.726562 C 376.277344 939.488281 359.386719 931.140625 353.789062 927.6875 C 343.445312 921.953125 334.90625 916.546875 328.167969 911.472656 C 305.972656 892.328125 291.679688 876.566406 285.292969 864.191406 L 285.289062 864.191406 L 285.996094 870.148438 C 290.351562 880.628906 294.96875 890.480469 299.847656 899.699219 C 319.34375 936.675781 343.074219 963.359375 371.042969 979.753906 C 385.082031 987.703125 397.144531 993.117188 407.226562 995.988281 C 408.210938 996.726562 430.738281 1001.128906 474.808594 1009.199219 L 495.886719 1015.515625 C 496.449219 1015.453125 496.699219 1015.144531 496.632812 1014.582031 C 492.808594 1010.339844 487 1002.09375 479.207031 989.84375 C 475.351562 983.613281 470.699219 975.007812 465.253906 964.035156 C 460.835938 955.011719 453.738281 934.648438 443.960938 902.9375 C 439.179688 891.015625 435.292969 882.363281 432.300781 876.976562 C 406.488281 838.371094 390.886719 818.757812 385.5 818.136719 Z M 747.480469 1051.484375 L 750.484375 1052.117188 L 750.453125 1052.128906 C 750.296875 1052.183594 750.140625 1052.242188 749.984375 1052.296875 C 749.882812 1052.261719 749.78125 1052.226562 749.683594 1052.1875 Z M 1036.660156 927.21875 C 1027.851562 928.859375 1018.304688 933.597656 1008.023438 941.445312 C 1003.015625 944.734375 987.375 961.5625 961.097656 991.925781 C 957.453125 995.585938 953.480469 998.871094 949.179688 1001.78125 C 935.382812 1010.140625 926.976562 1014.863281 923.960938 1015.953125 C 915.640625 1019.277344 903.207031 1023.773438 886.671875 1029.433594 C 882.519531 1030.972656 878.210938 1033.453125 873.753906 1036.875 L 873.992188 1038.105469 C 887.050781 1039.199219 917.003906 1046.136719 963.851562 1058.921875 C 972.136719 1060.824219 979.882812 1062.089844 987.085938 1062.726562 C 991.363281 1063.207031 996.121094 1063.445312 1001.359375 1063.445312 C 1012.132812 1063.445312 1024.941406 1062.433594 1039.785156 1060.402344 C 1048.789062 1058.746094 1057.445312 1056.402344 1065.75 1053.375 L 1077.945312 1048.324219 C 1101.804688 1037.195312 1122.507812 1019.90625 1140.054688 996.464844 C 1139.921875 995.980469 1139.625 995.734375 1139.164062 995.734375 C 1138.867188 995.734375 1138.5 995.839844 1138.0625 996.042969 C 1123.589844 1005.242188 1111.972656 1011.601562 1103.210938 1015.125 C 1096.308594 1018.171875 1088.019531 1020.742188 1078.339844 1022.839844 C 1070.996094 1024.421875 1056.304688 1026.269531 1034.261719 1028.390625 C 1002.121094 1029.554688 982.324219 1030.605469 974.867188 1031.539062 C 974.785156 1031.535156 974.6875 1031.53125 974.582031 1031.53125 C 971.472656 1031.53125 959.035156 1034.1875 937.277344 1039.5 L 943.847656 1036.867188 C 948.199219 1034.984375 952.488281 1032.832031 956.722656 1030.414062 C 960.957031 1028 965.136719 1025.316406 969.253906 1022.371094 C 977.492188 1016.476562 985.496094 1009.519531 993.273438 1001.503906 C 997.085938 997.375 1001.476562 991.136719 1006.445312 982.78125 C 1021.394531 952.894531 1031.589844 935.046875 1037.023438 929.230469 C 1037.605469 927.910156 1037.601562 927.25 1037.015625 927.25 C 1037.003906 927.25 1036.988281 927.25 1036.972656 927.253906 Z M 463.476562 927.28125 L 463.164062 927.3125 C 463.148438 927.3125 463.132812 927.3125 463.121094 927.3125 C 462.535156 927.3125 462.53125 927.972656 463.113281 929.289062 C 468.546875 935.105469 478.738281 952.957031 493.691406 982.84375 C 498.660156 991.195312 503.050781 997.4375 506.863281 1001.566406 C 514.636719 1009.582031 522.644531 1016.539062 530.882812 1022.433594 C 535 1025.378906 539.175781 1028.058594 543.410156 1030.476562 C 547.644531 1032.894531 551.9375 1035.042969 556.289062 1036.929688 L 562.855469 1039.5625 C 541.101562 1034.25 528.664062 1031.59375 525.554688 1031.59375 C 525.449219 1031.59375 525.351562 1031.597656 525.265625 1031.601562 C 517.8125 1030.667969 498.015625 1029.617188 465.875 1028.453125 C 443.832031 1026.332031 429.140625 1024.484375 421.796875 1022.902344 C 412.117188 1020.804688 403.828125 1018.234375 396.925781 1015.1875 C 388.160156 1011.664062 376.546875 1005.300781 362.074219 996.105469 C 361.636719 995.898438 361.269531 995.796875 360.972656 995.796875 C 360.511719 995.796875 360.214844 996.042969 360.082031 996.527344 C 377.628906 1019.96875 398.332031 1037.257812 422.191406 1048.386719 L 434.386719 1053.4375 C 442.691406 1056.464844 451.347656 1058.808594 460.351562 1060.464844 C 475.195312 1062.492188 488 1063.507812 498.777344 1063.507812 C 504.015625 1063.507812 508.773438 1063.269531 513.050781 1062.789062 C 520.253906 1062.152344 528 1060.882812 536.285156 1058.984375 C 583.132812 1046.199219 613.085938 1039.257812 626.144531 1038.164062 L 626.382812 1036.9375 C 621.925781 1033.515625 617.617188 1031.035156 613.464844 1029.492188 C 596.925781 1023.835938 584.496094 1019.339844 576.175781 1016.011719 C 573.160156 1014.925781 564.753906 1010.199219 550.957031 1001.84375 C 546.65625 998.929688 542.683594 995.648438 539.039062 991.988281 C 512.761719 961.621094 497.121094 944.796875 492.113281 941.507812 C 481.832031 933.660156 472.285156 928.917969 463.476562 927.28125 Z M 790.152344 1032.910156 C 780.726562 1032.910156 768.34375 1034.46875 752.996094 1037.585938 C 752.613281 1037.664062 752.230469 1037.742188 751.851562 1037.820312 L 751.839844 1037.820312 C 751.0625 1037.855469 750.410156 1037.871094 749.886719 1037.871094 C 749.746094 1037.871094 749.609375 1037.871094 749.488281 1037.867188 C 749.035156 1037.863281 748.523438 1037.84375 747.957031 1037.8125 L 747.949219 1037.8125 C 747.679688 1037.757812 747.410156 1037.703125 747.140625 1037.648438 C 731.792969 1034.53125 719.410156 1032.972656 709.984375 1032.972656 C 709.582031 1032.972656 709.183594 1032.976562 708.789062 1032.980469 L 704.179688 1033.058594 C 688.898438 1033.570312 672.53125 1036.628906 655.082031 1042.238281 L 643.488281 1046.285156 C 616.015625 1057.871094 591.199219 1067.757812 569.042969 1075.941406 C 560.101562 1079.636719 550.699219 1082.566406 540.839844 1084.730469 C 531.261719 1087.3125 520.972656 1088.605469 509.976562 1088.605469 C 506.617188 1088.605469 503.191406 1088.484375 499.699219 1088.242188 C 488.324219 1087.671875 471.066406 1083.726562 447.933594 1076.40625 L 447.925781 1076.40625 C 445.609375 1078.652344 447.519531 1082.222656 453.65625 1087.113281 C 467.902344 1097.101562 485.796875 1105.011719 507.339844 1110.84375 C 519.664062 1114.09375 532.246094 1115.722656 545.09375 1115.722656 C 551.214844 1115.722656 557.394531 1115.351562 563.632812 1114.613281 C 568.808594 1113.925781 573.933594 1112.804688 579.007812 1111.261719 L 586.582031 1108.621094 L 594.058594 1105.351562 L 594.066406 1105.351562 C 593.9375 1105.464844 593.917969 1105.519531 594.007812 1105.519531 C 594.167969 1105.519531 594.667969 1105.34375 595.503906 1104.996094 C 601.21875 1102.324219 623.785156 1088.957031 663.207031 1064.902344 C 671.324219 1060.390625 678.382812 1056.875 684.378906 1054.359375 C 691.371094 1051.425781 699.234375 1049.027344 707.976562 1047.164062 C 712.539062 1046.15625 717.226562 1045.65625 722.035156 1045.65625 C 722.761719 1045.65625 723.492188 1045.667969 724.226562 1045.6875 L 724.214844 1045.6875 C 724.21875 1045.707031 724.222656 1045.726562 724.226562 1045.742188 L 724.21875 1045.742188 C 717.222656 1048.339844 710.460938 1051.339844 703.941406 1054.738281 C 685.640625 1065.507812 675.039062 1072.609375 672.140625 1076.050781 C 644.285156 1102.148438 627.667969 1119.289062 622.289062 1127.464844 C 622.074219 1129.816406 622.265625 1131.183594 622.859375 1131.574219 C 637.121094 1139.28125 644.609375 1144.375 645.335938 1146.855469 L 644.78125 1142.007812 L 653.78125 1126.671875 C 660.183594 1116.839844 667.382812 1107.785156 675.386719 1099.515625 L 687.996094 1087.691406 C 696.800781 1080.203125 706.410156 1073.492188 716.820312 1067.566406 C 727.089844 1061.714844 738.144531 1056.628906 749.976562 1052.300781 L 749.988281 1052.300781 C 761.886719 1056.640625 772.996094 1061.75 783.316406 1067.628906 C 793.726562 1073.554688 803.335938 1080.265625 812.140625 1087.753906 L 824.746094 1099.574219 C 832.75 1107.847656 839.953125 1116.898438 846.355469 1126.734375 L 855.355469 1142.070312 L 854.800781 1146.917969 C 855.523438 1144.4375 863.015625 1139.34375 877.273438 1131.636719 C 877.871094 1131.246094 878.0625 1129.878906 877.847656 1127.527344 C 872.46875 1119.347656 855.851562 1102.210938 827.996094 1076.113281 C 825.09375 1072.671875 814.496094 1065.570312 796.195312 1054.800781 C 789.539062 1051.328125 782.632812 1048.277344 775.480469 1045.640625 L 775.472656 1045.640625 C 775.109375 1045.65625 774.75 1045.671875 774.386719 1045.691406 C 774.5625 1045.605469 774.738281 1045.519531 774.90625 1045.4375 L 774.917969 1045.4375 C 775.105469 1045.503906 775.292969 1045.574219 775.480469 1045.640625 C 776.359375 1045.609375 777.230469 1045.59375 778.101562 1045.59375 C 782.910156 1045.59375 787.597656 1046.097656 792.160156 1047.101562 C 800.902344 1048.96875 808.765625 1051.363281 815.757812 1054.296875 C 821.753906 1056.8125 828.8125 1060.328125 836.929688 1064.839844 C 876.351562 1088.898438 898.917969 1102.261719 904.628906 1104.933594 C 905.46875 1105.28125 905.96875 1105.457031 906.128906 1105.457031 C 906.21875 1105.457031 906.199219 1105.402344 906.070312 1105.289062 L 906.082031 1105.289062 L 913.554688 1108.558594 L 921.128906 1111.199219 C 926.203125 1112.742188 931.328125 1113.863281 936.503906 1114.550781 C 942.742188 1115.289062 948.921875 1115.660156 955.042969 1115.660156 C 967.890625 1115.660156 980.472656 1114.03125 992.796875 1110.78125 C 1014.339844 1104.949219 1032.234375 1097.042969 1046.480469 1087.054688 C 1052.617188 1082.160156 1054.527344 1078.589844 1052.210938 1076.347656 L 1052.199219 1076.347656 C 1029.066406 1083.664062 1011.8125 1087.609375 1000.4375 1088.179688 C 996.945312 1088.421875 993.519531 1088.542969 990.160156 1088.542969 C 979.164062 1088.542969 968.875 1087.25 959.296875 1084.667969 C 949.4375 1082.503906 940.035156 1079.574219 931.09375 1075.878906 C 908.9375 1067.695312 884.121094 1057.8125 856.648438 1046.222656 L 845.054688 1042.175781 C 827.605469 1036.566406 811.238281 1033.507812 795.957031 1032.996094 L 791.347656 1032.921875 C 790.953125 1032.914062 790.554688 1032.910156 790.152344 1032.910156 Z M 645.34375 1146.925781 L 645.386719 1147.328125 C 645.398438 1147.203125 645.390625 1147.070312 645.355469 1146.925781 Z M 854.78125 1146.988281 C 854.746094 1147.128906 854.734375 1147.265625 854.746094 1147.386719 L 854.792969 1146.988281 Z M 854.78125 1146.988281 " fill-opacity="1" fill-rule="nonzero"/></g><g clip-path="url(#f2d10089cd)"><path fill="#ffffff" d="M 732.757812 646.566406 L 736.417969 645.976562 L 738.246094 644.875 L 738.777344 643.546875 L 738.777344 641.707031 L 740.734375 639.574219 L 742.566406 639.574219 L 743.078125 638.394531 L 742.238281 636.1875 L 745.347656 636.1875 L 746.59375 637.21875 L 748.863281 636.847656 L 748.933594 635.746094 L 750.328125 634.789062 L 751.496094 635.082031 L 751.277344 637.070312 L 752.082031 637.734375 L 752.523438 638.394531 L 750.546875 638.984375 L 749.226562 641.191406 L 749.375 643.546875 L 752.011719 643.402344 L 751.863281 641.78125 L 750.910156 639.351562 L 752.082031 638.910156 L 753.253906 639.058594 L 754.863281 639.351562 L 756.914062 640.675781 L 758.304688 641.78125 L 758.304688 643.695312 L 757.5 644.652344 L 755.742188 643.03125 L 754.207031 643.402344 L 753.914062 645.316406 L 757.574219 647.082031 L 758.816406 646.273438 L 758.816406 644.433594 L 760.648438 642.960938 L 759.769531 640.75 L 758.378906 638.394531 L 755.011719 635.820312 L 754.207031 633.683594 L 755.15625 632.875 L 756.988281 634.863281 L 761.085938 636.480469 L 762.699219 637.953125 L 764.164062 640.308594 L 764.164062 642.222656 L 765.554688 643.917969 L 764.234375 646.125 L 764.820312 647.007812 L 768.042969 646.417969 L 769.140625 645.167969 L 768.410156 646.933594 L 769.507812 647.007812 L 771.703125 647.007812 L 770.09375 645.683594 L 770.019531 644.433594 L 768.554688 642.960938 L 767.96875 641.632812 L 767.382812 640.824219 L 769.359375 639.941406 L 771.335938 640.308594 L 770.898438 641.339844 L 772.070312 642.664062 L 772.070312 641.117188 L 773.605469 641.117188 L 774.117188 640.164062 L 774.925781 639.351562 L 774.117188 637.804688 L 774.117188 636.1875 L 775.65625 635.082031 L 775.65625 633.832031 L 777.632812 631.917969 L 779.167969 631.402344 L 780.632812 632.210938 L 781.660156 632.136719 L 781.660156 632.507812 L 780.046875 632.726562 L 781.074219 633.90625 L 781.660156 634.714844 L 783.34375 633.976562 L 785.027344 633.609375 L 784.441406 633.09375 L 783.195312 632.875 L 783.195312 631.769531 L 785.027344 631.402344 L 786.417969 630.59375 L 788.246094 629.929688 L 788.246094 630.886719 L 786.492188 631.695312 L 785.683594 633.09375 L 784.835938 633.003906 L 785.566406 633.832031 L 787.9375 634.898438 L 788.816406 636.058594 L 790.023438 637.660156 L 790.023438 638.984375 L 788.375 639.648438 L 785.082031 638.875 L 782.886719 638.210938 L 780.796875 638.320312 L 779.867188 639.039062 L 777.285156 640.308594 L 775.527344 640.308594 L 774.320312 641.523438 L 773.003906 641.523438 L 772.507812 641.691406 L 772.289062 643.015625 L 772.890625 643.734375 L 773.386719 645.003906 L 774.046875 646.4375 L 776.296875 646.382812 L 777.503906 647.046875 L 779.535156 646.328125 L 782.007812 646.714844 L 783.820312 646.546875 L 783.652344 651.019531 L 782.28125 653.0625 L 780.910156 654.445312 L 777.394531 653.671875 L 774.921875 653.835938 L 770.476562 653.117188 L 768.390625 652.015625 L 766.304688 651.574219 L 763.449219 652.125 L 763.613281 655.492188 L 762.40625 654.941406 L 759.714844 653.78125 L 758.066406 652.789062 L 753.785156 651.902344 L 752.851562 649.972656 L 752.851562 647.320312 L 752.523438 645.242188 L 746.664062 646.273438 L 741.542969 645.757812 L 738.246094 647.523438 L 735.390625 648.773438 L 733.636719 648.773438 L 732.757812 648.148438 L 731.601562 647.816406 L 729.792969 649.972656 L 728.144531 651.628906 L 726.003906 652.566406 L 726.003906 655.492188 L 724.246094 657.976562 L 721.5 660.074219 L 718.699219 663.113281 L 716.449219 667.859375 L 717.4375 668.910156 L 717.710938 672.941406 L 716.449219 677.136719 L 718.097656 679.398438 L 721.886719 683.984375 L 725.507812 687.296875 L 728.804688 689.945312 L 733.085938 688.644531 L 735.667969 689.226562 L 738.777344 688.066406 L 740.9375 686.6875 L 744.890625 687.128906 L 746.261719 689.613281 C 746.261719 689.613281 748.734375 690.054688 748.898438 689.945312 C 749.0625 689.835938 751.425781 692.042969 751.425781 692.042969 L 749.886719 695.910156 L 751.644531 699 L 754.445312 703.859375 L 755.542969 707.890625 L 756.144531 710.152344 L 754.609375 712.140625 L 753.730469 716.449219 L 754.003906 718.601562 L 756.144531 722.410156 L 757.902344 726.273438 L 758.011719 731.023438 L 760.042969 732.679688 L 760.375 735.828125 L 762.019531 737.152344 L 761.417969 738.863281 L 762.570312 741.457031 L 767.566406 740.851562 L 771.792969 739.359375 L 774.539062 736.710938 L 776.515625 734.28125 L 780.632812 730.359375 L 780.6875 727.65625 L 782.554688 727.324219 L 783.761719 723.074219 L 782.171875 721.636719 L 783.378906 718.433594 L 786.289062 717.496094 L 790.023438 715.5625 L 790.023438 710.484375 L 788.429688 707.0625 L 788.429688 702.535156 L 790.023438 699.164062 L 792.21875 696.128906 L 795.457031 692.375 L 798.808594 688.894531 L 801.71875 684.535156 L 803.144531 680.226562 L 800.125 680.613281 L 795.84375 681.167969 L 793.425781 680.835938 L 792.714844 679.234375 L 791.394531 678.019531 L 787.828125 673.769531 L 787.113281 671.285156 L 786.179688 670.675781 L 786.015625 667.640625 L 784.421875 665.597656 L 781.566406 661.179688 L 779.976562 656.816406 L 779.644531 655.382812 L 780.414062 655.824219 L 781.183594 657.921875 L 781.730469 659.136719 L 783.050781 658.472656 L 783.652344 659.414062 L 785.738281 661.730469 L 787.441406 665.101562 L 788.101562 667.417969 L 788.320312 668.742188 L 789.914062 669.351562 L 791.671875 672.332031 L 793.152344 673.601562 L 792.601562 676.363281 L 793.589844 678.792969 L 795.511719 678.40625 L 798.699219 677.414062 L 801.71875 675.921875 L 804.792969 673.269531 L 807.484375 673.214844 L 809.789062 671.449219 L 811.65625 668.6875 L 814.347656 667.308594 L 814.675781 665.101562 L 811.765625 663.941406 L 809.953125 662.671875 L 808.304688 663.886719 L 805.175781 664.273438 L 803.53125 662.945312 L 801.71875 660.128906 L 799.742188 658.144531 L 799.851562 655.601562 L 802.652344 654.445312 L 802.375 657.148438 L 804.078125 658.640625 L 807.261719 660.515625 L 809.019531 659.746094 L 810.667969 659.191406 L 811.492188 661.457031 L 814.675781 662.007812 L 820.164062 661.730469 L 823.734375 663.167969 L 825.273438 666.8125 L 828.238281 668.136719 L 830.378906 666.316406 L 830.378906 668.523438 L 830.816406 673.492188 L 832.410156 676.085938 L 833.671875 679.234375 L 834.714844 681.828125 L 835.757812 684.203125 L 838.066406 683.539062 L 839.328125 681.828125 L 839.875 683.152344 L 839 684.589844 L 839.21875 686.6875 L 840.753906 686.910156 L 842.183594 685.695312 L 842.566406 684.535156 L 840.316406 682.933594 L 839.601562 681 L 839.546875 677.191406 L 839.710938 675.257812 L 841.414062 674.761719 L 845.804688 670.785156 L 848.277344 668.632812 L 848.550781 668.46875 L 848.550781 667.308594 L 850.527344 666.257812 C 850.527344 666.257812 853.769531 666.3125 853.933594 666.203125 C 854.097656 666.09375 855.195312 667.417969 855.195312 667.417969 L 855.632812 669.957031 L 857.664062 671.007812 L 857.664062 673.214844 L 857.996094 674.761719 L 860.300781 674.320312 L 861.453125 673.160156 L 862.332031 676.582031 L 862.828125 679.511719 L 862.550781 682.4375 L 862.828125 684.753906 L 864.585938 686.355469 L 865.078125 689.503906 L 866.449219 690.773438 L 866.78125 691.988281 L 865.40625 691.710938 L 863.761719 689.503906 L 861.949219 688.234375 L 859.3125 686.796875 L 858.875 688.894531 L 859.972656 691.65625 L 863.15625 692.097656 L 864.75 695.136719 L 866.78125 698.28125 L 869.03125 700.4375 L 870.898438 701.980469 L 871.445312 702.753906 L 872.65625 704.078125 L 874.796875 704.464844 L 881.988281 705.183594 L 885.449219 706.121094 L 890.28125 706.34375 L 893.464844 706.34375 L 894.835938 707.503906 L 894.011719 708.550781 L 895.332031 707.890625 L 898.734375 705.128906 L 898.734375 704.246094 L 895.988281 705.570312 L 894.671875 706.121094 L 892.695312 705.460938 C 892.695312 705.460938 890.5 705.238281 890.171875 705.238281 C 889.839844 705.238281 883.582031 704.796875 883.582031 704.796875 L 881.769531 703.75 L 882.703125 703.582031 L 882.648438 702.863281 L 879.464844 702.863281 L 875.785156 702.589844 L 872.875 701.871094 L 872.105469 700.324219 L 872.820312 697.507812 C 872.820312 697.507812 870.347656 696.019531 870.292969 695.851562 C 870.238281 695.6875 868.757812 693.203125 868.757812 693.203125 L 869.746094 692.652344 L 870.679688 693.367188 L 875.675781 693.425781 L 876.5 694.914062 L 877.597656 697.894531 L 882.59375 698.945312 L 886.050781 697.34375 L 888.46875 698.117188 L 889.347656 699.109375 L 890.5 699.164062 L 892.367188 700.710938 L 894.5625 701.265625 L 893.464844 697.785156 L 893.519531 695.6875 C 893.519531 695.6875 891.871094 695.246094 891.707031 695.578125 C 891.542969 695.910156 890.28125 696.738281 890.28125 696.738281 L 888.46875 696.128906 L 888.46875 697.234375 L 886.382812 696.679688 L 887.480469 695.246094 L 887.261719 694.03125 L 888.414062 693.867188 L 888.136719 692.042969 L 887.261719 690.496094 L 888.082031 688.644531 L 889.179688 687.902344 L 892.144531 687.460938 L 893.023438 685.253906 L 894.398438 685.695312 L 895.441406 687.238281 L 897.800781 687.515625 L 899.121094 685.085938 L 897.800781 682.214844 L 895.933594 679.234375 L 894.78125 677.300781 L 892.144531 676.308594 L 892.804688 672.773438 L 891.980469 670.953125 L 890.609375 671.007812 L 889.566406 674.375 L 891.101562 677.136719 L 891.816406 680.0625 L 893.957031 681.609375 L 893.957031 683.984375 L 892.914062 684.589844 L 891.925781 686.796875 L 890.664062 686.964844 L 890.226562 685.96875 L 889.347656 686.300781 L 889.402344 686.910156 L 888.578125 687.296875 L 887.039062 686.082031 L 886.875 685.253906 L 885.886719 685.695312 L 882.8125 689.339844 L 881.273438 689.78125 L 878.695312 691.382812 L 876.554688 692.539062 L 875.566406 692.539062 L 870.402344 692.320312 L 868.921875 689.613281 L 868.8125 687.183594 L 866.671875 685.253906 L 863.925781 683.042969 L 865.132812 678.460938 L 866.230469 677.300781 L 867.605469 679.453125 L 869.414062 680.613281 L 871.886719 681.113281 L 870.789062 683.429688 L 873.203125 682.546875 L 875.34375 680.726562 L 876.445312 680.0625 L 876.167969 675.699219 L 872.214844 673.492188 L 871.886719 670.179688 L 873.972656 667.972656 L 876.664062 666.921875 L 876.773438 668.800781 L 876.113281 669.738281 L 876.609375 670.953125 L 878.089844 671.339844 L 879.464844 669.515625 L 878.585938 667.308594 L 879.738281 666.257812 L 882.484375 665.597656 L 884.789062 663.828125 L 889.238281 659.800781 L 892.421875 657.039062 L 892.859375 654.5 L 891.269531 650.800781 L 889.675781 647.433594 L 891.707031 645.71875 L 893.023438 644.617188 L 889.949219 644.175781 L 888.6875 645.773438 L 888.136719 643.347656 L 889.015625 641.691406 L 891.652344 640.695312 L 892.859375 640.804688 L 891.816406 642.40625 L 893.246094 641.746094 L 894.617188 641.136719 L 895.605469 641.800781 L 897.144531 642.460938 L 896.101562 644.394531 L 897.527344 645.167969 L 898.351562 645.773438 L 898.132812 648.316406 L 897.199219 650.46875 L 900.765625 648.644531 L 902.742188 648.976562 L 903.839844 650.082031 L 902.140625 651.792969 L 903.183594 653.835938 L 907.082031 650.800781 L 909.496094 650.359375 L 911.582031 648.8125 L 915.097656 647.488281 L 916.6875 644.78125 L 917.019531 641.136719 L 917.019531 637.714844 L 917.621094 636.777344 L 919.324219 638.046875 L 920.3125 637.164062 L 922.015625 636.445312 L 922.015625 634.734375 L 920.3125 634.402344 L 918.5 633.019531 L 918.609375 631.253906 L 920.148438 631.363281 L 919.050781 629.488281 L 918.664062 628.21875 L 920.039062 626.507812 L 921.082031 627.554688 L 920.640625 625.566406 L 919.542969 623.027344 L 919.542969 618.941406 L 918.941406 618.335938 L 917.457031 619.492188 L 917.675781 622.253906 L 917.675781 631.421875 L 917.789062 631.972656 L 917.789062 632.523438 L 917.019531 633.628906 L 917.238281 635.394531 L 916.523438 636.222656 L 915.425781 636.222656 L 915.535156 641.632812 L 914.601562 643.457031 L 912.789062 645.609375 L 911.636719 644.5625 L 910.757812 645.996094 L 910.539062 647.320312 L 909.277344 647.597656 L 907.574219 646.878906 L 905.652344 647.816406 L 904.828125 648.644531 L 903.402344 648.535156 L 901.480469 648.261719 L 902.6875 646.878906 L 901.972656 645.113281 L 900.492188 642.792969 L 899.996094 640.804688 L 904.390625 637.382812 L 906.53125 636.335938 L 908.070312 636.664062 L 913.011719 630.8125 L 915.152344 627.664062 L 915.808594 625.679688 L 916.03125 623.136719 L 916.359375 620.15625 L 914.710938 618.335938 L 912.902344 618.886719 L 911.035156 618.335938 L 909.277344 616.898438 L 915.808594 610.882812 L 918.554688 609.003906 L 922.015625 608.671875 L 926.683594 607.679688 L 929.371094 609.113281 L 931.789062 610.164062 L 933.820312 609.335938 L 934.367188 609.003906 L 933.214844 608.066406 L 936.453125 605.359375 L 940.132812 603.867188 L 940.847656 606.242188 L 942.441406 606.410156 L 944.25 604.917969 L 944.746094 603.425781 L 946.722656 602.984375 L 946.226562 604.253906 L 943.976562 606.960938 L 941.726562 608.121094 L 938.707031 612.039062 L 936.289062 613.367188 L 934.148438 616.84375 L 935.027344 620.378906 L 936.289062 622.089844 L 936.234375 623.691406 L 938.488281 622.308594 L 939.53125 619.714844 L 940.957031 619.550781 L 941.175781 618.058594 L 942.988281 617.894531 L 942.933594 615.738281 L 944.800781 614.636719 L 944.582031 612.980469 L 943.757812 612.480469 L 944.636719 612.039062 L 944.359375 611.101562 L 943.207031 610.9375 L 945.074219 608.394531 L 946.722656 607.953125 L 947.710938 608.394531 L 950.347656 606.738281 L 953.585938 608.121094 L 956.109375 605.910156 L 960.339844 602.984375 L 964.292969 602.652344 L 965.003906 603.039062 L 964.128906 600.390625 L 962.589844 599.175781 L 964.074219 599.175781 L 965.992188 598.84375 L 966.597656 596.359375 L 969.78125 598.015625 L 973.023438 599.066406 L 974.722656 600.226562 L 974.722656 596.359375 L 973.242188 595.972656 L 972.472656 594.539062 L 971.980469 593.597656 L 962.039062 588.796875 L 957.484375 588.078125 L 954.464844 588.078125 L 953.914062 590.339844 L 952.269531 590.453125 L 951.222656 589.402344 L 953.3125 588.078125 L 952.101562 587.636719 L 949.246094 588.1875 L 949.359375 588.960938 L 947.160156 588.851562 L 942.328125 588.300781 L 940.464844 587.636719 L 939.585938 585.429688 L 934.644531 585.097656 L 930.523438 585.097656 L 927.449219 582.941406 L 925.417969 581.5625 L 922.5625 581.230469 L 915.699219 581.230469 L 914.273438 582.722656 L 915.152344 584.046875 L 912.84375 585.261719 L 907.902344 584.601562 L 905.652344 583.109375 L 904.171875 586.035156 L 901.480469 583.882812 L 900.546875 580.957031 L 897.308594 579.242188 L 894.835938 579.242188 L 893.574219 580.679688 L 890.003906 579.742188 L 884.074219 578.746094 L 879.410156 579.628906 L 875.511719 580.074219 L 872.820312 580.570312 L 872.160156 579.464844 L 876.058594 577.972656 L 880.5625 575.214844 L 881.660156 574 L 880.398438 571.402344 L 875.894531 570.410156 L 874.136719 571.84375 L 872.492188 570.410156 L 870.074219 569.085938 L 864.582031 572.289062 L 861.785156 574.660156 L 857.0625 573.445312 L 854.644531 574.21875 L 850.308594 575.488281 L 848.167969 576.980469 L 846.683594 577.917969 L 848.386719 578.746094 L 846.628906 579.960938 L 843.828125 578.800781 L 841.359375 579.410156 L 840.589844 580.625 L 840.808594 582.941406 L 843.335938 582.832031 L 843.5 585.097656 L 842.566406 585.042969 L 841.632812 583.773438 L 840.371094 583.054688 L 836.746094 582.5 L 834.660156 583.9375 L 835.59375 584.324219 L 836.527344 586.257812 L 833.617188 585.261719 L 833.234375 583.164062 L 830.980469 583.992188 L 831.695312 586.476562 L 832.246094 587.914062 L 832.464844 590.230469 L 836.472656 590.507812 L 837.40625 593.214844 L 836.800781 595.199219 L 835.867188 591.003906 L 833.671875 590.671875 L 832.683594 592.21875 L 833.011719 594.316406 L 831.53125 595.476562 L 828.457031 596.140625 L 826.753906 595.753906 L 829.5 595.089844 L 830.707031 593.101562 L 830.871094 591.28125 L 829.828125 590.339844 L 829.828125 587.914062 L 829.71875 585.152344 L 829.113281 584.984375 L 830.101562 582.003906 L 828.566406 581.011719 L 827.46875 580.128906 L 824.941406 582.226562 L 823.296875 584.765625 L 822.140625 586.585938 L 822.582031 589.347656 L 825.546875 590.011719 L 825.65625 591.667969 L 825.601562 592.496094 L 822.964844 591.113281 L 818.792969 589.183594 L 814.949219 588.300781 L 812.480469 587.691406 L 811.050781 585.703125 L 808.46875 583.21875 L 808.855469 580.84375 L 811.269531 578.746094 L 816.15625 575.710938 L 819.121094 573.945312 L 822.636719 573.003906 L 825.273438 572.066406 L 825.65625 570.90625 L 824.394531 570.519531 L 821.207031 571.183594 L 818.574219 571.84375 L 813.300781 572.5625 L 811.378906 575.214844 L 808.582031 577.808594 L 806.769531 579.851562 L 804.683594 582.390625 L 804.574219 585.925781 L 806.605469 586.53125 L 809.789062 586.972656 L 811.324219 586.972656 L 812.09375 587.96875 L 815.277344 589.84375 L 815.167969 591.886719 L 813.523438 592.714844 L 812.808594 590.671875 L 808.910156 591.058594 L 806.109375 592.109375 L 804.792969 590.785156 L 800.5625 593.046875 L 798.53125 595.089844 L 795.292969 594.925781 L 792.710938 597.078125 L 788.757812 597.519531 L 788.429688 599.175781 L 789.691406 600.113281 L 788.59375 600.335938 L 785.683594 598.84375 L 784.53125 598.789062 L 785.851562 600.113281 L 786.234375 601.382812 L 783.816406 600.28125 L 782.554688 599.785156 L 782.5 597.296875 L 780.46875 595.144531 L 783.816406 595.972656 L 787.496094 596.800781 L 790.679688 595.585938 L 790.792969 593.820312 L 787.660156 592.550781 L 784.367188 590.453125 L 781.785156 590.285156 L 779.316406 588.796875 L 776.84375 589.515625 L 776.625 587.96875 L 778.109375 588.355469 L 777.886719 587.691406 L 775.199219 586.699219 L 772.179688 586.699219 L 769.542969 586.367188 L 767.015625 587.25 C 767.015625 587.25 763.722656 588.242188 763.558594 588.1875 C 763.394531 588.132812 762.128906 589.183594 762.128906 589.183594 L 760.042969 590.175781 L 756.859375 591.722656 L 758.78125 591.777344 L 758.453125 592.550781 L 755.925781 595.53125 L 753.402344 599.066406 L 749.832031 601.660156 L 746.316406 603.539062 L 744.945312 606.90625 L 745.933594 610.4375 L 746.648438 612.261719 L 750.324219 612.09375 L 753.125 609.722656 L 754.058594 612.207031 L 756.53125 616.015625 L 758.945312 614.691406 L 760.265625 612.59375 L 761.910156 610.769531 L 763.449219 610.273438 L 761.527344 608.78125 L 760.757812 605.027344 L 762.898438 602.765625 L 765.207031 600.335938 L 765.808594 598.402344 L 769.160156 597.132812 L 770.53125 597.742188 L 768.390625 600.886719 L 765.917969 602.820312 L 765.480469 604.808594 L 765.535156 607.625 L 763.558594 607.734375 L 763.832031 609.113281 L 765.753906 609.058594 L 768.609375 609.28125 L 770.3125 608.726562 L 773.113281 607.511719 L 774.648438 608.285156 L 774.375 609.777344 L 771.902344 609.832031 L 768.390625 610.824219 L 766.632812 610.496094 L 766.6875 612.539062 L 768.71875 611.597656 L 770.035156 612.925781 L 769.707031 614.582031 L 766.742188 613.917969 L 765.316406 613.253906 L 765.152344 615.628906 L 764.328125 616.457031 L 764.21875 618.222656 L 763.339844 618.777344 L 761.417969 618.058594 L 758.398438 618.445312 L 756.96875 618.777344 L 754.003906 618.335938 L 750.546875 619.605469 L 751.3125 616.511719 L 752.523438 617.394531 L 754.003906 617.339844 L 754.335938 616.457031 L 754.335938 614.027344 L 752.6875 613.476562 L 751.644531 612.425781 L 749.449219 613.753906 L 749.503906 616.457031 L 748.953125 618.996094 L 746.757812 619.878906 L 743.847656 622.253906 L 741.375 624.1875 L 740.277344 623.636719 L 741.265625 621.371094 L 740.113281 620.046875 L 736.929688 618.167969 C 736.929688 618.167969 735.722656 615.738281 735.832031 615.410156 C 735.941406 615.078125 735.5 613.421875 735.5 613.421875 L 734.457031 611.710938 L 732.261719 610.714844 L 730.667969 613.199219 L 730.613281 614.691406 L 731.382812 616.679688 L 729.625 616.789062 L 727.484375 617.835938 L 726.167969 620.15625 L 726.828125 621.59375 L 725.289062 622.363281 L 726.222656 623.746094 L 729.679688 623.25 L 730.503906 621.648438 L 730.835938 621.757812 L 731 618.609375 L 731.824219 617.671875 L 732.703125 617.78125 L 733.691406 620.210938 L 733.359375 621.757812 L 732.425781 623.027344 L 733.03125 623.964844 L 732.261719 625.292969 L 731.878906 626.339844 L 733.46875 625.621094 L 735.171875 625.679688 L 735.390625 624.90625 L 739.070312 624.628906 L 740.167969 624.1875 L 741.101562 624.628906 L 741.101562 626.007812 L 738.777344 626.726562 L 736.488281 627.777344 L 733.800781 627.941406 L 733.085938 628.605469 L 736.324219 630.921875 L 737.257812 633.628906 L 737.257812 636.167969 L 734.679688 636.222656 L 729.738281 636.113281 L 728.089844 636.113281 L 726.773438 638.320312 L 728.035156 641.46875 L 726.828125 642.90625 L 727.761719 645.113281 L 728.035156 646.546875 L 730.339844 646.105469 L 731.164062 646.714844 L 732.097656 647.210938 Z M 732.757812 646.566406 " fill-opacity="1" fill-rule="nonzero"/></g><path fill="#ffffff" d="M 793.589844 716.503906 L 795.019531 719.925781 L 793.589844 721.914062 L 793.042969 725.226562 L 794.03125 728.097656 L 796.777344 727.433594 L 798.753906 724.121094 L 801.386719 718.820312 L 801.386719 714.625 L 800.730469 709.765625 L 797.984375 714.292969 L 796.667969 715.175781 L 793.703125 715.066406 Z M 793.589844 716.503906 " fill-opacity="1" fill-rule="nonzero"/><path fill="#ffffff" d="M 927.121094 704.355469 L 923.167969 702.148438 L 921.410156 699.609375 C 921.410156 699.609375 918.777344 698.394531 918.335938 698.394531 C 917.898438 698.394531 911.308594 695.300781 911.308594 695.300781 L 910.539062 697.179688 L 908.015625 696.847656 L 907.027344 695.300781 L 904.5 694.195312 L 903.953125 695.191406 L 904.5 695.300781 L 906.039062 697.730469 L 906.695312 699.71875 L 910.871094 700.601562 L 913.285156 703.695312 L 911.96875 704.578125 L 914.273438 705.351562 L 916.910156 706.011719 L 917.898438 707.226562 L 919.984375 704.90625 L 922.398438 704.90625 L 924.375 707.226562 L 929.316406 707.226562 Z M 927.121094 704.355469 " fill-opacity="1" fill-rule="nonzero"/><path fill="#ffffff" d="M 910.648438 713.191406 L 914.492188 717.277344 L 916.632812 717.277344 L 917.566406 711.976562 L 918.554688 708.550781 L 919.984375 711.535156 L 921.519531 713.519531 L 922.730469 715.839844 L 925.253906 719.925781 L 927.890625 722.796875 L 931.183594 726.550781 L 931.84375 729.863281 L 931.84375 735.164062 L 930.855469 739.691406 L 928.550781 742.011719 L 927.671875 745.101562 L 924.816406 744.441406 L 923.71875 746.871094 L 921.246094 745.765625 L 917.675781 746.097656 L 915.261719 743.886719 L 913.285156 738.585938 L 911.199219 739.359375 L 909.882812 740.6875 L 906.917969 736.488281 L 902.964844 734.832031 L 900.988281 735.054688 L 897.144531 736.929688 L 895.824219 739.359375 L 892.96875 740.023438 L 890.664062 739.472656 L 886.160156 741.457031 L 884.074219 739.25 L 884.074219 737.816406 L 883.308594 735.605469 L 882.320312 731.742188 L 881.550781 728.316406 L 882.648438 723.460938 L 882.539062 722.6875 L 888.027344 721.582031 L 889.894531 719.484375 L 892.640625 719.816406 L 892.75 717.9375 L 892.75 715.949219 L 896.15625 714.734375 L 897.582031 713.078125 L 899.667969 712.96875 L 901.207031 714.515625 L 902.195312 713.078125 L 902.851562 710.429688 L 905.597656 709.878906 L 909.222656 708.550781 L 910.320312 708.550781 L 911.527344 710.980469 L 911.199219 712.195312 Z M 910.648438 713.191406 " fill-opacity="1" fill-rule="nonzero"/><path fill="#ffffff" d="M 921.410156 748.527344 L 924.046875 750.515625 L 925.914062 749.519531 L 925.914062 754.710938 L 922.507812 754.710938 L 920.421875 750.402344 Z M 921.410156 748.527344 " fill-opacity="1" fill-rule="nonzero"/><path fill="#ffffff" d="M 951.058594 754.710938 L 948.425781 755.8125 L 949.742188 757.46875 L 951.058594 758.464844 L 954.132812 758.464844 L 954.902344 755.261719 L 956.113281 753.828125 L 957.757812 750.84375 L 958.964844 750.84375 L 960.832031 749.519531 L 962.371094 745.984375 L 963.359375 745.433594 L 961.820312 744.21875 C 961.820312 744.21875 960.941406 744.328125 960.832031 744.21875 C 960.722656 744.109375 959.078125 740.90625 959.078125 740.90625 L 955.890625 740.355469 L 958.527344 743.226562 L 959.515625 746.207031 L 958.746094 748.527344 L 957.429688 748.527344 L 955.34375 750.625 L 953.804688 752.832031 L 951.9375 754.15625 Z M 951.058594 754.710938 " fill-opacity="1" fill-rule="nonzero"/><g clip-path="url(#460c25c0f5)"><path fill="#ffffff" d="M 651.9375 770.390625 L 656.328125 773.703125 L 654.132812 776.132812 L 649.960938 774.585938 L 645.128906 770.390625 L 642.929688 767.519531 L 642.929688 761.777344 L 644.25 756.917969 L 642.929688 750.292969 L 646.007812 745.433594 L 646.445312 740.132812 L 648.640625 735.71875 L 649.628906 730.417969 L 650.835938 726.882812 L 650.835938 723.347656 L 649.628906 720.699219 L 646.882812 716.722656 L 644.03125 712.527344 L 638.539062 708.332031 L 637 703.398438 L 635.609375 700.96875 L 637.148438 695.890625 C 637.148438 695.890625 639.710938 692.28125 639.492188 692.210938 C 639.269531 692.136719 641.175781 688.644531 641.175781 688.644531 L 641.175781 686.097656 L 639.34375 683.816406 L 637.734375 684.257812 L 637.660156 685.363281 L 636.125 685.878906 L 633.855469 684.625 L 631.878906 681.753906 L 631.363281 680.652344 L 629.167969 678.441406 L 625.507812 677.265625 L 621.996094 674.761719 L 620.089844 673.585938 L 617.382812 674.246094 L 614.671875 672.996094 L 610.574219 672.996094 L 606.472656 669.757812 L 605.742188 666.957031 L 602.449219 662.761719 L 599.082031 660.039062 L 598.421875 656.945312 L 595.785156 653.855469 L 594.835938 653.191406 L 594.835938 656.0625 L 596.445312 657.609375 L 599.300781 661.660156 L 600.03125 664.015625 L 600.179688 664.824219 L 599.007812 664.457031 L 596.8125 662.6875 L 596.371094 660.628906 L 593.957031 658.417969 L 593.445312 656.652344 L 591.832031 653.855469 L 591.246094 651.5 L 588.320312 648.40625 L 587.074219 649.21875 C 587.074219 649.21875 584.4375 646.125 584.511719 645.902344 C 584.585938 645.683594 583.046875 642.960938 583.046875 642.960938 L 580.265625 638.691406 L 581.511719 635.230469 L 582.753906 630.59375 L 581.585938 627.792969 L 578.800781 625.734375 L 577.046875 622.9375 L 576.460938 620.582031 L 573.382812 618.667969 L 570.601562 617.195312 L 569.578125 614.394531 L 563.792969 610.199219 L 560.867188 608.285156 L 556.765625 607.109375 L 551.203125 606.8125 L 548.054688 607.917969 L 545.273438 610.273438 L 543.808594 613.070312 L 540.953125 614.910156 L 538.464844 616.238281 L 533.121094 617.636719 L 529.019531 619.550781 L 525.289062 620.949219 L 526.238281 618.664062 L 530.414062 616.972656 L 535.390625 615.058594 L 539.5625 612.1875 L 539.710938 610.125 L 535.828125 609.757812 L 532.972656 607.917969 L 529.898438 606.152344 L 529.753906 603.648438 L 532.753906 602.25 L 534.804688 602.25 L 537.21875 600.410156 L 535.535156 597.832031 L 531.949219 599.671875 L 528.070312 597.832031 L 530.191406 596.140625 C 530.191406 596.140625 532.828125 595.992188 533.046875 596.140625 C 533.265625 596.285156 535.683594 596.800781 535.683594 596.800781 L 537.367188 595.253906 L 533.046875 594.296875 L 528.4375 593.046875 L 528.144531 591.28125 L 530.703125 590.765625 L 535.609375 587.304688 L 538.902344 586.644531 L 543.882812 586.347656 L 547.25 587.378906 L 559.695312 589.441406 L 564.746094 590.398438 L 567.746094 591.058594 L 572.214844 588.777344 L 575.582031 588.484375 L 577.703125 586.347656 L 581.4375 588.777344 L 586.121094 588.335938 L 594.90625 592.3125 L 597.617188 593.414062 L 599.667969 592.386719 L 599.8125 591.355469 L 596.226562 591.429688 L 593.957031 589.144531 L 591.394531 588.628906 L 596.738281 587.820312 L 597.910156 586.054688 L 595.128906 586.054688 L 592.050781 586.347656 L 589.492188 584.65625 L 590.367188 582.152344 L 588.757812 581.269531 L 586.34375 584.285156 L 584.585938 585.316406 L 580.925781 582.960938 L 581.292969 579.355469 L 582.609375 576.703125 L 587.367188 576.703125 L 589.78125 577.585938 L 591.90625 577.660156 L 592.34375 580.015625 L 590.808594 580.902344 L 589.78125 581.121094 L 590.808594 581.785156 L 592.566406 580.53125 L 594.394531 580.015625 L 595.492188 581.5625 L 601.789062 581.5625 L 603.765625 579.28125 L 606.253906 578.101562 L 604.570312 575.230469 L 601.570312 574.863281 L 597.25 576.410156 L 595.421875 575.601562 L 595.054688 574.863281 L 592.859375 574.863281 L 591.539062 573.316406 L 589.929688 573.757812 L 589.050781 574.347656 L 586.929688 573.316406 L 584.585938 572.65625 L 583.339844 572.140625 L 586.34375 571.332031 L 587.878906 569.933594 L 591.320312 568.828125 L 592.34375 569.417969 L 592.273438 570.667969 L 594.542969 571.183594 L 596.152344 571.917969 L 598.347656 573.390625 L 600.984375 573.832031 L 600.472656 572.582031 L 600.617188 571.257812 L 600.03125 569.933594 L 598.203125 570.59375 C 598.203125 570.59375 595.347656 569.34375 595.347656 569.5625 C 595.347656 569.785156 594.101562 568.828125 594.101562 568.828125 L 596.664062 567.132812 L 597.617188 565.734375 L 599.375 565.734375 L 601.644531 566.472656 L 601.203125 567.871094 L 599.957031 568.828125 L 600.542969 569.417969 L 600.835938 570.152344 L 601.570312 570.742188 L 603.472656 572.066406 L 605.742188 572.289062 L 606.035156 573.464844 L 605.597656 575.085938 L 606.621094 577.292969 L 607.644531 580.089844 L 606.253906 581.785156 L 607.058594 583.476562 L 607.574219 585.171875 L 608.230469 586.273438 L 609.621094 587.671875 L 611.304688 588.484375 C 611.304688 588.484375 611.453125 589.515625 611.234375 589.585938 C 611.011719 589.660156 608.742188 591.058594 608.742188 591.058594 L 608.523438 593.488281 L 611.820312 593.121094 L 615.480469 593.414062 L 615.480469 591.355469 L 613.28125 588.851562 L 615.773438 587.96875 L 618.039062 590.25 L 618.332031 592.753906 L 618.261719 594.886719 L 619.796875 592.605469 L 620.382812 590.101562 L 619.140625 588.410156 C 619.140625 588.410156 617.308594 587.453125 617.234375 587.230469 C 617.164062 587.011719 618.1875 584.214844 618.1875 584.214844 C 618.1875 584.214844 617.308594 583.625 617.089844 583.699219 C 616.871094 583.773438 614.671875 585.390625 614.671875 585.390625 L 612.917969 585.097656 L 610.207031 581.488281 L 611.160156 580.386719 L 612.769531 580.679688 L 611.964844 579.429688 L 613.136719 578.398438 L 614.601562 578.691406 L 616.0625 578.25 L 615.332031 581.34375 L 617.457031 581.414062 L 618.332031 581.121094 L 618.917969 580.089844 L 618.480469 578.472656 L 621.628906 577.21875 L 623.898438 577.882812 C 623.898438 577.882812 625.65625 577.734375 625.433594 578.25 C 625.214844 578.765625 623.09375 580.3125 623.09375 580.3125 C 623.09375 580.3125 620.53125 581.269531 620.96875 582.003906 C 621.410156 582.742188 621.703125 583.917969 621.703125 583.917969 L 622.214844 586.054688 L 623.972656 587.230469 L 623.75 589.070312 L 626.167969 591.796875 L 627.265625 593.636719 L 629.828125 595.035156 L 630.484375 591.132812 L 631.4375 588.703125 L 629.167969 588.335938 L 626.679688 586.570312 L 626.09375 582.59375 L 627.703125 580.679688 L 629.535156 578.691406 C 629.535156 578.691406 631.511719 578.914062 631.292969 579.132812 C 631.070312 579.355469 629.023438 581.5625 629.023438 581.5625 L 630.414062 583.992188 L 631.730469 584.730469 L 632.023438 581.785156 L 632.460938 579.28125 L 634.953125 578.542969 L 636.125 576.484375 L 633.046875 576.1875 L 629.679688 576.335938 L 624.703125 576.335938 L 623.605469 575.230469 L 621.628906 575.011719 L 620.164062 576.1875 L 617.675781 574.570312 L 615.332031 574.128906 L 612.988281 575.746094 L 609.84375 573.613281 L 607.425781 572.507812 L 607.058594 571.109375 L 610.207031 571.917969 L 612.257812 571.183594 L 614.378906 571.84375 L 616.0625 572.949219 L 617.527344 572.582031 L 618.992188 573.6875 L 619.503906 572.289062 L 617.308594 570.816406 L 618.699219 569.417969 L 617.015625 568.164062 L 614.453125 566.617188 L 613.355469 567.429688 L 613.648438 569.636719 L 611.378906 568.386719 L 610.28125 569.34375 L 609.183594 569.417969 L 608.890625 567.796875 L 608.304688 567.355469 L 606.179688 567.28125 L 606.179688 565.367188 L 605.523438 564.261719 L 608.15625 564.261719 L 610.0625 565 L 611.085938 565.734375 L 612.988281 565.882812 L 616.210938 565.292969 L 617.457031 566.691406 L 619.066406 567.132812 L 621.1875 568.679688 C 621.1875 568.679688 621.996094 568.902344 622.214844 568.976562 C 622.433594 569.046875 621.042969 570.445312 621.042969 570.445312 L 619.652344 569.636719 L 619.359375 570.519531 L 620.601562 570.960938 L 621.921875 571.332031 L 624.335938 571.402344 L 625.800781 571.109375 L 628.144531 569.933594 L 629.242188 567.945312 L 630.707031 569.417969 L 632.535156 568.019531 L 631.804688 566.839844 L 627.851562 564.632812 L 625.433594 566.324219 L 622.359375 566.617188 L 619.140625 566.03125 L 620.601562 564.703125 L 621.921875 564.851562 L 620.894531 562.789062 L 619.945312 562.789062 L 618.847656 563.527344 L 617.601562 561.980469 L 619.945312 559.625 L 621.773438 558.375 L 625.070312 560.066406 L 625.800781 560.65625 L 628.507812 562.054688 L 630.925781 563.453125 L 632.753906 565.148438 L 632.171875 563.820312 L 629.902344 562.128906 L 631 560.875 L 632.753906 561.613281 L 636.125 561.90625 L 637.808594 560.949219 L 638.683594 559.773438 L 634.21875 560.433594 L 630.925781 560.214844 L 626.242188 558.890625 L 624.554688 556.753906 L 624.921875 555.796875 L 628.363281 554.546875 L 630.707031 554.25 L 634.074219 552.777344 L 636.5625 551.601562 L 639.050781 551.160156 L 643.808594 551.675781 L 648.570312 551.160156 L 652.523438 552.484375 L 654.570312 552.335938 L 656.695312 553.148438 L 658.378906 553.367188 L 660.722656 554.398438 L 662.039062 554.398438 L 659.621094 556.238281 L 661.527344 556.089844 L 663.503906 555.132812 L 667.527344 554.472656 L 670.898438 554.324219 L 673.019531 555.132812 L 675.65625 553.21875 L 675.289062 551.675781 L 678.289062 551.160156 L 683.269531 550.277344 L 683.707031 549.6875 L 687.953125 549.6875 L 693.589844 548.582031 L 696.152344 549.246094 L 700.105469 548.582031 L 702.742188 549.835938 L 708.597656 551.160156 L 709.550781 552.261719 L 708.011719 552.632812 L 706.253906 554.546875 L 708.597656 553.957031 L 710.722656 554.03125 L 710.722656 556.164062 L 707.132812 557.933594 L 707.132812 561.613281 L 708.890625 559.847656 L 710.355469 557.636719 L 713.285156 557.046875 L 719.871094 556.605469 L 721.703125 558.003906 L 720.3125 558.667969 L 715.773438 560.289062 L 714.089844 563.894531 L 714.601562 565.882812 L 713.429688 567.648438 L 712.332031 570.816406 L 714.234375 571.402344 L 713.429688 573.832031 L 711.308594 576.117188 L 712.917969 578.765625 L 709.625 582.519531 L 710.941406 585.757812 L 710.5 587.527344 L 707.71875 588.703125 L 710.207031 590.765625 L 708.597656 592.386719 L 703.109375 591.429688 C 703.109375 591.429688 699.59375 592.898438 699.742188 593.195312 C 699.886719 593.488281 696.738281 597.390625 696.59375 597.167969 C 696.445312 596.949219 692.273438 598.9375 692.273438 598.9375 L 689.929688 603.355469 L 684.953125 606.886719 L 679.609375 606.371094 L 677.046875 604.679688 L 672.726562 601.070312 L 672.507812 597.464844 L 671.335938 593.488281 L 671.628906 591.28125 L 673.605469 590.617188 L 675.214844 590.617188 L 675.289062 588.335938 L 674.042969 587.085938 L 672.359375 589.367188 L 670.238281 588.558594 L 669.726562 587.011719 L 670.824219 586.496094 L 670.824219 584.582031 L 669.066406 583.257812 L 666.871094 579.574219 L 667.234375 577 L 664.96875 575.527344 L 663.722656 572.730469 L 661.085938 572.289062 L 657.5 572.800781 L 653.691406 570.59375 L 650.984375 571.402344 L 648.933594 568.164062 L 649.007812 565.148438 L 652.523438 566.175781 L 656.253906 565.21875 L 655.523438 563.304688 L 657.9375 562.054688 L 656.328125 561.320312 L 653.105469 560.582031 L 655.230469 558.890625 L 658.523438 559.109375 L 659.84375 559.109375 L 660.941406 556.976562 L 659.257812 556.605469 L 657.0625 557.046875 L 656.476562 558.226562 L 653.621094 558.152344 L 652.667969 559.847656 L 648.496094 562.421875 L 645.421875 564.191406 L 643.222656 567.871094 L 640.664062 567.796875 L 639.855469 569.636719 L 641.246094 570.667969 L 639.929688 573.390625 L 636.34375 571.550781 C 636.34375 571.550781 633.488281 571.332031 633.269531 571.550781 C 633.046875 571.773438 626.605469 572.800781 626.605469 572.800781 L 625.800781 573.023438 L 626.753906 573.539062 L 629.242188 573.246094 L 632.171875 573.832031 L 635.390625 573.539062 L 637.585938 574.570312 L 639.125 574.789062 L 638.976562 575.820312 L 636.707031 576.335938 L 636.195312 578.472656 L 638.613281 578.988281 L 641.832031 579.429688 L 642.710938 581.046875 L 645.566406 582.152344 L 648.933594 585.832031 L 651.9375 587.527344 L 654.792969 590.25 L 654.132812 591.941406 L 657.207031 592.679688 L 658.964844 594.59375 L 661.160156 594.742188 L 661.085938 597.171875 L 657.644531 599.453125 L 658.816406 600.484375 L 658.378906 600.925781 L 655.816406 598.789062 L 655.742188 597.097656 L 654.425781 596.140625 L 653.691406 597.832031 L 655.304688 599.304688 L 656.328125 600.335938 L 657.867188 601.292969 L 658.085938 602.839844 L 657.28125 602.765625 L 657.9375 603.722656 L 657.132812 604.238281 L 655.523438 603.207031 L 653.765625 602.617188 L 652.851562 601.375 L 652.082031 600.335938 L 652.449219 603.355469 C 652.449219 603.355469 654.71875 603.796875 654.9375 603.648438 C 655.15625 603.5 656.109375 604.53125 656.109375 604.53125 L 655.890625 605.046875 L 651.9375 604.898438 L 650.617188 603.722656 L 648.640625 601.585938 L 644.6875 600.851562 L 641.6875 600.628906 L 639.5625 598.640625 L 640.808594 598.421875 L 643.445312 598.863281 L 644.617188 597.832031 L 646.664062 597.683594 L 646.445312 595.402344 L 648.277344 594.003906 L 645.640625 590.765625 L 644.25 591.722656 L 642.199219 588.925781 L 640.664062 588.261719 L 637.878906 589.144531 L 636.050781 588.335938 C 636.050781 588.335938 635.464844 588.777344 635.464844 589.070312 C 635.464844 589.367188 637.367188 590.691406 637.367188 590.691406 L 635.539062 591.796875 L 637.292969 593.269531 L 636.5625 595.183594 L 634.367188 595.917969 L 633.414062 597.90625 L 631.585938 596.65625 L 631.65625 598.640625 L 634.074219 599.15625 L 635.757812 599.230469 L 636.707031 600.484375 L 638.101562 601.441406 L 636.417969 602.101562 L 634.878906 602.765625 L 634.585938 603.648438 L 632.683594 603.207031 L 633.121094 601.882812 L 634.660156 601.511719 L 634.441406 600.703125 L 633.046875 600.484375 L 632.097656 601.585938 L 631.292969 602.101562 L 629.972656 601.292969 L 629.753906 598.9375 L 630.414062 597.023438 L 629.679688 596.800781 L 628.730469 598.789062 L 626.824219 601.367188 L 624.410156 601.953125 L 622.289062 604.679688 C 622.289062 604.679688 620.675781 604.824219 620.457031 605.195312 C 620.238281 605.5625 619.652344 608.210938 619.652344 608.210938 L 620.164062 609.757812 L 621.996094 610.273438 L 622.140625 613.660156 L 623.496094 613.585938 L 626.019531 614.910156 L 629.828125 615.351562 L 631.949219 616.753906 L 634.953125 616.972656 L 635.097656 621.242188 L 637.148438 622.273438 L 638.683594 623.671875 L 639.417969 622.640625 L 639.34375 620.136719 L 638.394531 617.488281 L 640.808594 617.121094 L 641.613281 615.574219 L 643.078125 613.070312 L 641.90625 611.453125 L 638.320312 609.464844 L 641.539062 605.195312 L 641.027344 602.765625 L 643.445312 603.425781 L 645.492188 603.867188 L 646.226562 603.867188 L 647.617188 606.152344 L 651.277344 607.476562 L 652.523438 609.609375 L 654.351562 610.863281 L 656.253906 608.507812 L 657.28125 606.738281 L 658.746094 608.507812 L 660.574219 612.261719 L 662.699219 616.308594 L 665.550781 618.445312 L 668.480469 620.507812 L 669.285156 623.082031 L 668.847656 626.46875 L 671.480469 627.351562 L 671.628906 630.296875 L 668.847656 630.148438 L 665.699219 629.78125 L 663.210938 629.78125 L 665.550781 626.101562 L 667.164062 623.15625 L 664.820312 623.304688 L 662.769531 624.777344 L 657.425781 624.851562 L 653.984375 625.070312 L 652.15625 627.351562 L 653.472656 627.941406 L 655.375 626.765625 L 657.351562 628.308594 L 657.425781 631.328125 L 658.671875 632.285156 L 661.597656 631.550781 L 662.699219 631.769531 L 663.28125 633.09375 L 659.84375 633.609375 L 659.328125 634.421875 L 655.449219 636.996094 L 654.792969 634.421875 L 656.621094 633.316406 L 655.667969 632.652344 L 652.230469 634.789062 L 647.542969 638.027344 L 649.519531 641.046875 L 645.640625 642.296875 L 641.90625 645.019531 L 642.417969 647.007812 L 641.832031 648.628906 L 639.710938 650.320312 L 636.050781 653.414062 L 636.269531 656.726562 L 637.515625 659.15625 L 637.222656 661.363281 L 635.316406 661.363281 L 634 658.859375 L 634.292969 656.503906 L 632.609375 655.402344 L 629.242188 655.988281 L 626.460938 654.960938 L 623.496094 655.472656 L 619.871094 656.136719 L 618.113281 658.199219 L 615.40625 661.804688 L 615.625 666.738281 L 616.648438 669.976562 L 620.019531 671.15625 L 622.652344 669.683594 L 624.777344 668.429688 L 625.363281 667.695312 L 628.363281 668.503906 L 630.121094 667.328125 L 633.855469 665.042969 L 636.125 665.855469 L 638.976562 665.632812 L 641.761719 666.664062 L 645.859375 668.136719 L 647.691406 669.3125 L 650.179688 669.828125 L 652.960938 670.566406 L 652.667969 671.15625 L 652.082031 671.742188 L 649.152344 671.890625 L 645.859375 670.199219 L 644.394531 671.230469 L 642.492188 669.902344 L 639.417969 668.578125 L 638.320312 667.03125 L 635.023438 666.957031 L 633.78125 665.707031 L 632.097656 667.402344 L 630.851562 668.355469 L 628.875 669.757812 L 627.265625 672.40625 L 627.703125 674.46875 L 633.78125 674.394531 L 634.074219 677.78125 L 633.707031 681.242188 L 634.585938 682.269531 L 637.292969 682.933594 L 638.90625 682.933594 L 641.027344 683.15625 L 643.664062 680.0625 L 646.957031 679.398438 L 649.519531 679.03125 L 652.15625 681.09375 L 655.375 681.535156 L 657.9375 681.460938 L 661.160156 684.113281 L 664.089844 685.4375 L 667.894531 688.644531 L 670.164062 687.277344 L 672.726562 688.96875 L 674.851562 691.546875 L 676.535156 694.125 L 679.972656 694.785156 L 684.953125 697.878906 L 687.003906 698.464844 L 690.078125 700.675781 L 693.078125 703.25 L 693.738281 701.707031 L 694.6875 703.25 L 694.46875 706.566406 L 692.417969 709.65625 L 690.441406 711.9375 L 689.636719 715.988281 L 688.464844 718.34375 L 687.296875 721.289062 L 684.441406 723.644531 L 684.660156 725.558594 L 680.339844 726.074219 L 676.535156 729.164062 L 676.972656 731.960938 L 675.144531 733.804688 L 672.433594 738.441406 L 670.53125 739.617188 L 667.894531 741.53125 L 665.113281 740.648438 L 665.992188 742.269531 C 665.992188 742.269531 667.382812 743.078125 667.601562 743.152344 C 667.820312 743.226562 666.210938 745.140625 666.210938 745.140625 L 662.84375 747.789062 L 660.722656 747.714844 L 659.328125 749.703125 L 658.378906 751.984375 L 655.667969 750.144531 L 656.328125 752.28125 L 657.0625 752.574219 L 657.5 753.3125 L 656.183594 754.488281 L 656.109375 755.59375 L 653.472656 756.992188 L 653.328125 758.390625 L 654.863281 759.054688 L 655.742188 759.054688 L 656.546875 760.746094 L 653.914062 762.957031 L 651.421875 765.164062 L 651.351562 766.855469 L 652.375 768.183594 L 652.449219 769.582031 Z M 651.9375 770.390625 " fill-opacity="1" fill-rule="nonzero"/></g><path fill="#ffffff" d="M 709.367188 597.132812 L 707.9375 598.125 L 711.234375 599.011719 L 708.597656 601.441406 L 705.960938 599.285156 L 705.960938 602.324219 L 711.234375 601.660156 L 713.101562 602.324219 L 716.945312 602.324219 L 716.945312 601.109375 L 720.128906 602.324219 L 721.226562 600.445312 L 721.703125 598.457031 L 719.359375 596.582031 L 718.261719 595.253906 L 717.382812 597.464844 L 714.636719 596.25 L 713.210938 595.253906 L 711.125 595.253906 L 709.804688 596.46875 Z M 709.367188 597.132812 " fill-opacity="1" fill-rule="nonzero"/></svg>